<svg width="24" height="24" viewBox="0 0 24 24" fill="none" xmlns="http://www.w3.org/2000/svg">
<path fill-rule="evenodd" clip-rule="evenodd" d="M19.7453 18.375H9.92707C9.5998 18.375 9.34526 18.15 9.23617 17.8125L5.23617 2.58751C5.01799 1.87501 4.72708 1.875 4.61799 1.875H1.4907C1.0907 1.875 0.799805 1.5375 0.799805 1.125C0.799805 0.7125 1.0907 0.375 1.4907 0.375H4.61799C5.05435 0.375 6.14526 0.562518 6.61799 2.17502L7.78163 6.33751H23.2362C23.4544 6.33751 23.6725 6.44998 23.818 6.63748C23.9271 6.86248 23.9634 7.08749 23.8907 7.34999L20.4362 17.8875C20.3271 18.1875 20.0725 18.375 19.7453 18.375ZM10.4725 16.875H19.2362L22.1816 7.83751H8.18162L10.4725 16.875ZM17.818 19.875C18.7998 19.875 19.6362 20.7 19.6362 21.75C19.6362 22.7625 18.7998 23.625 17.818 23.625C16.7998 23.625 15.9998 22.7625 15.9998 21.75C15.9998 20.7 16.7998 19.875 17.818 19.875ZM11.2725 19.875C12.2543 19.875 13.0907 20.7 13.0907 21.75C13.0907 22.7625 12.2543 23.625 11.2725 23.625C10.2543 23.625 9.45435 22.7625 9.45435 21.75C9.45435 20.7 10.2543 19.875 11.2725 19.875Z" fill="white"/>
</svg>
