<svg width="24" height="24" viewBox="0 0 24 24" fill="none" xmlns="http://www.w3.org/2000/svg">
<path fill-rule="evenodd" clip-rule="evenodd" d="M19.6125 18.375H9.48744C9.14994 18.375 8.88746 18.15 8.77496 17.8125L4.64996 2.58751C4.42496 1.87501 4.12495 1.875 4.01245 1.875H0.787437C0.374937 1.875 0.0749512 1.5375 0.0749512 1.125C0.0749512 0.7125 0.374937 0.375 0.787437 0.375H4.01245C4.46245 0.375 5.58745 0.562518 6.07495 2.17502L7.27496 6.33751H9.18745L13.9124 2.25C14.5124 1.65 15.4499 1.65 16.0499 2.25L20.8499 6.33751H23.2125C23.4375 6.33751 23.6624 6.44998 23.8124 6.63748C23.9249 6.86248 23.9624 7.08749 23.8874 7.34999L20.3249 17.8875C20.2124 18.1875 19.95 18.375 19.6125 18.375ZM10.0499 16.875H19.0875L22.1249 7.83751H7.68745L10.0499 16.875ZM17.6249 19.875C18.6374 19.875 19.4999 20.7 19.4999 21.75C19.4999 22.7625 18.6374 23.625 17.6249 23.625C16.5749 23.625 15.7499 22.7625 15.7499 21.75C15.7499 20.7 16.5749 19.875 17.6249 19.875ZM10.8749 19.875C11.8874 19.875 12.7499 20.7 12.7499 21.75C12.7499 22.7625 11.8874 23.625 10.8749 23.625C9.82495 23.625 8.99995 22.7625 8.99995 21.75C8.99995 20.7 9.82495 19.875 10.8749 19.875ZM14.9625 3.30002L11.4 6.33751H18.5624L14.9625 3.30002Z" fill="#333399"/>
</svg>
