<svg width="30" height="24" viewBox="0 0 30 24" fill="none" xmlns="http://www.w3.org/2000/svg">
<path fill-rule="evenodd" clip-rule="evenodd" d="M25.5 24H18C17.175 24 16.5 23.325 16.5 22.5V15C16.5 14.175 17.175 13.5 18 13.5H25.5C26.325 13.5 27 14.175 27 15V22.5C27 23.325 26.325 24 25.5 24ZM25.5 15H18V22.5H25.5V15ZM25.5 10.5H18C17.175 10.5 16.5 9.825 16.5 9V1.5C16.5 0.675 17.175 0 18 0H25.5C26.325 0 27 0.675 27 1.5V9C27 9.825 26.325 10.5 25.5 10.5ZM25.5 1.5H18V9H25.5V1.5ZM12 24H4.5C3.675 24 3 23.325 3 22.5V15C3 14.175 3.675 13.5 4.5 13.5H12C12.825 13.5 13.5 14.175 13.5 15V22.5C13.5 23.325 12.825 24 12 24ZM12 15H4.5V22.5H12V15ZM12 10.5H4.5C3.675 10.5 3 9.825 3 9V1.5C3 0.675 3.675 0 4.5 0H12C12.825 0 13.5 0.675 13.5 1.5V9C13.5 9.825 12.825 10.5 12 10.5ZM12 1.5H4.5V9H12V1.5Z" fill="white"/>
</svg>
