<svg width="16" height="16" viewBox="0 0 16 16" fill="none" xmlns="http://www.w3.org/2000/svg">
<g clip-path="url(#clip0_1537_15465)">
<path fill-rule="evenodd" clip-rule="evenodd" d="M0.146447 0.146447C0.341709 -0.0488155 0.658291 -0.0488155 0.853553 0.146447L8 7.29289L15.1464 0.146447C15.3417 -0.0488155 15.6583 -0.0488155 15.8536 0.146447C16.0488 0.341709 16.0488 0.658291 15.8536 0.853553L8.70711 8L15.8536 15.1464C16.0488 15.3417 16.0488 15.6583 15.8536 15.8536C15.6583 16.0488 15.3417 16.0488 15.1464 15.8536L8 8.70711L0.853553 15.8536C0.658291 16.0488 0.341709 16.0488 0.146447 15.8536C-0.0488155 15.6583 -0.0488155 15.3417 0.146447 15.1464L7.29289 8L0.146447 0.853553C-0.0488155 0.658291 -0.0488155 0.341709 0.146447 0.146447Z" fill="black"/>
</g>
<defs>
<clipPath id="clip0_1537_15465">
<rect width="16" height="16" fill="white"/>
</clipPath>
</defs>
</svg>
