<svg width="24" height="24" viewBox="0 0 24 24" fill="none" xmlns="http://www.w3.org/2000/svg">
<path d="M18.075 19.5C17.6625 19.5 17.325 19.1625 17.325 18.75C17.325 18.3375 17.6625 18 18.075 18H18.3C20.85 18 22.5375 15.15 22.5375 12.6C22.5375 9.7875 20.1 7.5375 17.325 7.5L16.8 7.4625L16.6125 6.9375C15.8625 4.4625 14.175 3 11.2125 3C7.50001 3 5.0625 5.7375 5.0625 9.375L5.09999 9.4125L5.1375 10.0875L4.46251 10.2C2.81251 10.5 1.5 12.1875 1.5 14.0625C1.5 16.2 3.15 18 5.0625 18H5.7375C6.15 18 6.4875 18.3375 6.4875 18.75C6.4875 19.1625 6.15 19.5 5.7375 19.5H5.0625C2.325 19.5 0 17.025 0 14.0625C0 11.6625 1.49999 9.5625 3.59999 8.8875C3.86249 4.6875 6.86251 1.5 11.2125 1.5C14.5875 1.5 16.8375 3.225 17.8875 6C21.2625 6.375 24 9.15 24 12.6C24 15.825 21.825 19.425 18.075 19.5ZM12 20.7375L14.4 18.1125C14.625 17.8875 14.9625 17.8875 15.15 18.1125L15.3375 18.2625C15.5625 18.45 15.5625 18.7125 15.3375 18.9375L12.5625 21.975C12.5625 22 12.5625 22.0125 12.5625 22.0125L12.375 22.2C12.2625 22.3125 12.1125 22.35 12 22.35C11.85 22.35 11.7 22.3125 11.625 22.2L11.4 22.0125C11.4 22.0125 11.4 22 11.4 21.975L8.7 19.0125C8.475 18.7875 8.475 18.4125 8.7 18.1875L8.8875 18.1125C9.1125 17.8875 9.45 17.925 9.6375 18.15L12 20.7375ZM12.0375 11.5875C12.45 11.5875 12.7875 11.925 12.7875 12.3375V20.5875C12.7875 21 12.45 21.3375 12.0375 21.3375C11.625 21.3375 11.2875 21 11.2875 20.5875V12.3375C11.2875 11.925 11.625 11.5875 12.0375 11.5875Z" fill="white"/>
</svg>
