<svg width="30" height="24" viewBox="0 0 30 24" fill="none" xmlns="http://www.w3.org/2000/svg">
<path fill-rule="evenodd" clip-rule="evenodd" d="M25.5 24H4.5C3.675 24 3 23.325 3 22.5V3.75C3 2.925 3.675 2.25 4.5 2.25H10.5V0.75C10.5 0.3375 10.8375 0 11.25 0C11.6625 0 12 0.3375 12 0.75V2.25H18V0.75C18 0.3375 18.3375 0 18.75 0C19.1625 0 19.5 0.3375 19.5 0.75V2.25H25.5C26.325 2.25 27 2.925 27 3.75V22.5C27 23.325 26.325 24 25.5 24ZM25.5 3.75H19.5V4.5C19.5 4.9125 19.1625 5.25 18.75 5.25C18.3375 5.25 18 4.9125 18 4.5V3.75H12V4.5C12 4.9125 11.6625 5.25 11.25 5.25C10.8375 5.25 10.5 4.9125 10.5 4.5V3.75H4.5V22.5H25.5V3.75ZM20.25 9H21.75C22.1625 9 22.5 9.3375 22.5 9.75V11.25C22.5 11.6625 22.1625 12 21.75 12H20.25C19.8375 12 19.5 11.6625 19.5 11.25V9.75C19.5 9.3375 19.8375 9 20.25 9ZM20.25 15H21.75C22.1625 15 22.5 15.3375 22.5 15.75V17.25C22.5 17.6625 22.1625 18 21.75 18H20.25C19.8375 18 19.5 17.6625 19.5 17.25V15.75C19.5 15.3375 19.8375 15 20.25 15ZM14.25 15H15.75C16.1625 15 16.5 15.3375 16.5 15.75V17.25C16.5 17.6625 16.1625 18 15.75 18H14.25C13.8375 18 13.5 17.6625 13.5 17.25V15.75C13.5 15.3375 13.8375 15 14.25 15ZM14.25 9H15.75C16.1625 9 16.5 9.3375 16.5 9.75V11.25C16.5 11.6625 16.1625 12 15.75 12H14.25C13.8375 12 13.5 11.6625 13.5 11.25V9.75C13.5 9.3375 13.8375 9 14.25 9ZM8.25 9H9.75C10.1625 9 10.5 9.3375 10.5 9.75V11.25C10.5 11.6625 10.1625 12 9.75 12H8.25C7.8375 12 7.5 11.6625 7.5 11.25V9.75C7.5 9.3375 7.8375 9 8.25 9ZM8.25 15H9.75C10.1625 15 10.5 15.3375 10.5 15.75V17.25C10.5 17.6625 10.1625 18 9.75 18H8.25C7.8375 18 7.5 17.6625 7.5 17.25V15.75C7.5 15.3375 7.8375 15 8.25 15Z" fill="white"/>
</svg>
