<svg width="20" height="20" viewBox="0 0 20 20" fill="none" xmlns="http://www.w3.org/2000/svg">
<path fill-rule="evenodd" clip-rule="evenodd" d="M2.60723 0.732233C3.07607 0.263392 3.71196 0 4.375 0H12.8125C12.9783 0 13.1372 0.065848 13.2544 0.183058L17.9419 4.87056C18.0592 4.98777 18.125 5.14674 18.125 5.3125V17.5C18.125 18.163 17.8616 18.7989 17.3928 19.2678C16.9239 19.7366 16.288 20 15.625 20H4.375C3.71196 20 3.07607 19.7366 2.60723 19.2678C2.13839 18.7989 1.875 18.163 1.875 17.5V2.5C1.875 1.83696 2.13839 1.20107 2.60723 0.732233ZM16.875 5.57138V5.625H13.75C13.4185 5.625 13.1005 5.4933 12.8661 5.25888C12.6317 5.02446 12.5 4.70652 12.5 4.375V1.25H12.5536L16.875 5.57138ZM11.25 1.25V4.375C11.25 5.03804 11.5134 5.67393 11.9822 6.14277C12.4511 6.61161 13.087 6.875 13.75 6.875H16.875V17.5C16.875 17.8315 16.7433 18.1495 16.5089 18.3839C16.2745 18.6183 15.9565 18.75 15.625 18.75H4.375C4.04348 18.75 3.72554 18.6183 3.49112 18.3839C3.2567 18.1495 3.125 17.8315 3.125 17.5V2.5C3.125 2.16848 3.2567 1.85054 3.49112 1.61612C3.72554 1.3817 4.04348 1.25 4.375 1.25H11.25Z" fill="#333399"/>
</svg>
