<svg width="21" height="20" viewBox="0 0 21 20" fill="none" xmlns="http://www.w3.org/2000/svg">
<path fill-rule="evenodd" clip-rule="evenodd" d="M12.8398 20C7.15234 20 7.12109 19.75 6.40234 19.2188C6.05859 18.9375 5.33983 18.75 2.77733 18.5938C2.58983 18.5625 2.40234 18.5 2.27734 18.3437C2.21484 18.2812 0.933594 16.4063 0.933594 13.4063C0.933594 10.4688 1.87109 9.09376 1.90234 9.03126C2.02734 8.87501 2.21484 8.75 2.43359 8.75C4.55859 8.75 7.46483 6.06252 9.43358 1.34377C9.77733 0.531265 9.83984 0 11.0898 0C11.8086 0 12.6211 0.499985 12.9961 1.15623C13.8086 2.49998 13.4023 5.37499 13.0273 6.90624C14.3086 6.87499 16.6523 6.875 17.7461 6.875C19.3086 6.875 20.3086 7.78123 20.3398 9.12498C20.3711 9.56248 20.3086 10.1563 20.1836 10.4375C20.5273 10.7813 20.9648 11.2812 20.9648 11.9375C20.9961 12.8125 20.4336 13.4375 20.0898 13.8125C20.1523 14.0625 20.3398 14.4063 20.3086 14.7813C20.2773 15.75 19.5273 16.375 19.0586 16.6875C19.0898 16.9688 19.1211 17.4687 19.0586 17.8437C18.7148 19.375 16.4648 20 12.8398 20ZM3.08983 17.3125C5.33983 17.5 6.52734 17.75 7.18359 18.2188C7.65234 18.5938 7.58984 18.75 12.8398 18.75C14.4648 18.75 17.5898 18.6875 17.8398 17.5625C17.9336 17.125 17.4648 16.6875 17.4648 16.6875C17.3398 16.375 17.4648 16 17.7773 15.875C17.7773 15.875 19.0273 15.4375 19.0586 14.7187C19.0898 14.2812 18.7773 14.0313 18.7773 14C18.5898 13.7188 18.6523 13.3437 18.9336 13.1562C18.9336 13.1562 19.7461 12.6563 19.7148 11.9688C19.7148 11.4375 18.9961 11.0938 18.9961 11.0625C18.8398 10.9688 18.7148 10.8125 18.6836 10.6562C18.6523 10.4687 18.6836 10.2813 18.8086 10.1562C18.8086 10.1562 19.1211 9.62502 19.0898 9.15627C19.0898 8.15627 17.9961 8.125 17.7461 8.125C16.1836 8.125 12.1211 8.125 12.1211 8.125C11.9023 8.125 11.7148 8.03124 11.5898 7.84374C11.4961 7.68749 11.4648 7.46873 11.5586 7.24998C12.1523 5.49998 12.4961 2.75002 11.9336 1.81252C11.7773 1.53127 11.7148 1.25 11.0898 1.25C11.0273 1.25 10.8086 1.31251 10.5898 1.84376C8.49608 6.81251 5.37109 9.71876 2.83984 9.96876C2.62109 10.4688 2.18359 11.5313 2.18359 13.4063C2.18359 15.3438 2.80858 16.8438 3.08983 17.3125Z" fill="white"/>
</svg>
