<svg width="21" height="20" viewBox="0 0 21 20" fill="none" xmlns="http://www.w3.org/2000/svg">
<path fill-rule="evenodd" clip-rule="evenodd" d="M9.09109 0C14.7786 0 14.8098 0.25 15.5286 0.78125C15.9036 1.0625 16.5911 1.25 19.1848 1.40625C19.3723 1.4375 19.5286 1.50002 19.6536 1.65627C19.7161 1.71877 20.9973 3.59374 20.9973 6.59374C20.9973 9.53124 20.0598 10.9062 20.0286 10.9687C19.9348 11.125 19.7161 11.25 19.4973 11.25C17.4036 11.25 14.4661 13.9375 12.4974 18.6562C12.1536 19.4687 12.0911 20 10.8411 20C10.1223 20 9.34109 19.5 8.93484 18.8438C8.12234 17.5 8.5286 14.625 8.9036 13.0938C7.62235 13.125 5.30984 13.125 4.18484 13.125C2.65359 13.125 1.62234 12.2188 1.59109 10.875C1.59109 10.4375 1.62233 9.84374 1.77858 9.56249C1.43483 9.21874 0.997343 8.71877 0.966093 8.06252C0.934843 7.18752 1.49734 6.56252 1.84109 6.18752C1.77859 5.93752 1.62233 5.59373 1.62233 5.21873C1.65358 4.24998 2.40358 3.62499 2.87233 3.31249C2.84108 3.03124 2.80985 2.53126 2.9036 2.15626C3.2161 0.625008 5.46609 0 9.09109 0ZM18.8411 2.68749C16.5911 2.49999 15.4036 2.24998 14.7786 1.78123C14.2786 1.40623 14.3411 1.25 9.09109 1.25C7.49734 1.25 4.34108 1.31252 4.12233 2.43752C4.02858 2.87502 4.4661 3.31249 4.4661 3.31249C4.5911 3.62499 4.4661 3.99998 4.1536 4.12498C4.1536 4.12498 2.90358 4.56251 2.87233 5.28126C2.84108 5.71876 3.15358 5.96873 3.18483 5.99998C3.34108 6.28123 3.27859 6.65626 2.99734 6.84376C2.99734 6.84376 2.18484 7.34373 2.21609 8.03123C2.24734 8.56248 2.93485 8.90624 2.9661 8.93749C3.12235 9.03124 3.21609 9.18751 3.24734 9.34376C3.27859 9.53126 3.24734 9.71875 3.15359 9.84375C3.15359 9.84375 2.84109 10.375 2.84109 10.8437C2.87234 11.8437 3.96609 11.875 4.18484 11.875C5.74734 11.875 9.80984 11.875 9.80984 11.875C10.0286 11.875 10.2161 11.9688 10.3411 12.1563C10.4661 12.3125 10.4661 12.5313 10.4036 12.75C9.7786 14.5 9.43485 17.25 9.99735 18.1875C10.1849 18.4687 10.2161 18.75 10.8411 18.75C10.9348 18.75 11.1223 18.6875 11.3411 18.1562C13.4348 13.1875 16.5598 10.2812 19.1223 10.0312C19.3411 9.53124 19.7473 8.46874 19.7473 6.59374C19.7473 4.65624 19.1223 3.15624 18.8411 2.68749Z" fill="white"/>
</svg>
