<svg width="25" height="25" viewBox="0 0 25 25" fill="none" xmlns="http://www.w3.org/2000/svg">
<path fill-rule="evenodd" clip-rule="evenodd" d="M5.43378 1.48104C5.45879 1.48104 5.48377 1.48104 5.50877 1.48104C5.92127 2.11854 8.17129 5.53104 8.58379 6.16854C8.58379 6.24354 8.58379 6.43104 8.43379 6.65604C8.32129 6.91854 7.87129 7.66855 7.27129 8.75605L6.78378 9.58105L7.34628 10.3311C7.75878 10.9311 8.73379 12.206 10.6463 14.1185C12.5588 16.031 13.8338 17.006 14.3963 17.4185L15.1838 17.9436L16.0088 17.4935C16.7963 17.006 17.7713 16.481 18.1088 16.2935C18.3338 16.181 18.5213 16.181 18.5588 16.181C18.5838 16.181 18.5963 16.181 18.5963 16.181C19.1588 16.5185 22.6463 18.8435 23.2838 19.2935C23.2838 19.331 23.2838 19.4811 23.1713 19.6311C22.2338 20.9436 20.8838 22.3311 20.3213 22.5186C17.5088 22.4061 13.5713 19.931 9.22128 15.5435C4.83378 11.1935 2.35879 7.21855 2.24628 4.44355C2.43378 3.88105 3.78378 2.53104 5.09628 1.59354C5.20878 1.51854 5.32128 1.48104 5.43378 1.48104ZM5.43378 0.0185547C5.02129 0.0185547 4.6088 0.168554 4.2338 0.393555C4.2338 0.431055 0.671285 2.94354 0.746285 4.40604C0.858785 8.49354 4.83377 13.2935 8.13377 16.5935C11.4713 19.931 16.2713 23.9061 20.3588 24.0186H20.3963C21.8213 24.0186 24.3713 20.531 24.3713 20.4935C25.0463 19.556 24.8213 18.506 24.2213 18.0935C23.8463 17.831 19.8338 15.1685 19.3088 14.8685C19.1088 14.7435 18.8588 14.681 18.5588 14.681C18.1838 14.681 17.8088 14.756 17.3963 14.981C17.0213 15.1685 15.8213 15.8435 15.2588 16.181C14.7713 15.806 13.5713 14.906 11.6963 13.031C9.85877 11.1935 8.92129 9.99354 8.58379 9.46854C8.92129 8.90604 9.55878 7.74355 9.78378 7.36855C10.1588 6.61855 10.1963 5.90604 9.89629 5.41854C9.59629 4.96854 6.9338 0.956055 6.6713 0.581055C6.4088 0.243555 5.92128 0.0185547 5.43378 0.0185547Z" fill="white"/>
</svg>
