<svg width="20" height="20" viewBox="0 0 20 20" fill="none" xmlns="http://www.w3.org/2000/svg">
<g clip-path="url(#clip0_3186_4912)">
<path fill-rule="evenodd" clip-rule="evenodd" d="M10.4688 1.25C10.0639 1.25 9.6875 1.62643 9.6875 2.03125V10.4688C9.6875 10.8736 10.0639 11.25 10.4688 11.25H17.0312C17.4361 11.25 17.8125 10.8736 17.8125 10.4688V5.9375H15.625C14.962 5.9375 14.3261 5.67411 13.8572 5.20527C13.3884 4.73643 13.125 4.10054 13.125 3.4375V1.25H10.4688ZM10.4688 0C9.37357 0 8.4375 0.936072 8.4375 2.03125V10.4688C8.4375 11.5639 9.37357 12.5 10.4688 12.5H17.0312C18.1264 12.5 19.0625 11.5639 19.0625 10.4688V4.375C19.0625 4.20924 18.9967 4.05027 18.8794 3.93306L15.1294 0.183058C15.0122 0.065848 14.8533 0 14.6875 0H10.4688ZM14.375 1.25V3.4375C14.375 3.76902 14.5067 4.08696 14.7411 4.32138C14.9755 4.5558 15.2935 4.6875 15.625 4.6875H17.8125V4.63388L14.4286 1.25H14.375ZM5.3125 5.625C5.65768 5.625 5.9375 5.90482 5.9375 6.25V14.5C5.9375 14.5045 5.94046 14.5414 5.97837 14.6109C6.01498 14.678 6.06961 14.7482 6.12944 14.8081C6.18928 14.8679 6.25952 14.9225 6.32663 14.9591C6.39614 14.997 6.43302 15 6.4375 15H12.8125C13.1577 15 13.4375 15.2798 13.4375 15.625C13.4375 15.9702 13.1577 16.25 12.8125 16.25H6.4375C5.90685 16.25 5.47363 15.92 5.24556 15.6919C5.01749 15.4639 4.6875 15.0306 4.6875 14.5V6.25C4.6875 5.90482 4.96732 5.625 5.3125 5.625ZM1.5625 9.375C1.90768 9.375 2.1875 9.65482 2.1875 10V18.25C2.1875 18.2545 2.19046 18.2914 2.22837 18.3609C2.26498 18.428 2.31961 18.4982 2.37944 18.5581C2.43928 18.6179 2.50952 18.6725 2.57663 18.7091C2.64614 18.747 2.68302 18.75 2.6875 18.75H9.0625C9.40768 18.75 9.6875 19.0298 9.6875 19.375C9.6875 19.7202 9.40768 20 9.0625 20H2.6875C2.15685 20 1.72363 19.67 1.49556 19.4419C1.26749 19.2139 0.9375 18.7806 0.9375 18.25V10C0.9375 9.65482 1.21732 9.375 1.5625 9.375Z" fill="#333399"/>
</g>
<defs>
<clipPath id="clip0_3186_4912">
<rect width="20" height="20" fill="white"/>
</clipPath>
</defs>
</svg>
