<svg width="21" height="20" viewBox="0 0 21 20" fill="none" xmlns="http://www.w3.org/2000/svg">
<path fill-rule="evenodd" clip-rule="evenodd" d="M20.8125 19.8125C20.5625 20.0625 20.1875 20.0625 19.9375 19.8125L13.875 13.7188C12.5 14.9063 10.7187 15.625 8.75 15.625C4.4375 15.625 0.9375 12.125 0.9375 7.8125C0.9375 3.5 4.4375 0 8.75 0C13.0625 0 16.5625 3.5 16.5625 7.8125C16.5625 9.71875 15.875 11.4687 14.75 12.8125L20.8125 18.9375C21.0625 19.1562 21.0625 19.5625 20.8125 19.8125ZM2.1875 7.8125C2.1875 11.4375 5.125 14.375 8.75 14.375C12.375 14.375 15.3125 11.4375 15.3125 7.8125C15.3125 4.1875 12.375 1.25 8.75 1.25C5.125 1.25 2.1875 4.1875 2.1875 7.8125Z" fill="black"/>
</svg>
