<svg width="30" height="24" viewBox="0 0 30 24" fill="none" xmlns="http://www.w3.org/2000/svg">
<path fill-rule="evenodd" clip-rule="evenodd" d="M26.5876 5.0625C26.3251 4.95 26.0251 4.98752 25.8376 5.17502L22.0501 8.58751L18.6376 5.0625L22.0126 1.16249C22.2001 0.937491 22.2376 0.674991 22.1251 0.412491C22.0126 0.149991 21.7501 0 21.4876 0H21.2626C19.2001 0 15.6001 0.150018 13.9876 1.80002L13.6501 2.13748C11.9251 3.86248 11.6251 6.75002 12.5251 8.92502L3.8626 17.775C2.7001 18.9375 2.7001 20.8875 3.8626 22.05L4.9501 23.1375C5.5126 23.7 6.2626 24 7.0501 24C7.8001 24 8.58759 23.7 9.15009 23.1375L17.9251 14.2875C18.7876 14.7375 19.9126 15 20.8501 15C22.3876 15 23.8501 14.4 24.9376 13.275L25.2751 12.9375C27.0376 11.175 27.0001 7.38752 27.0001 5.73752C27.0001 5.43752 26.8501 5.175 26.5876 5.0625ZM24.2251 11.925L23.9626 12.2625C23.1001 13.0875 22.0126 13.5 20.8501 13.5C20.2876 13.5 19.5376 13.3875 19.0126 13.2C18.5376 13 18.1001 12.725 17.7001 12.375L8.1001 22.05C7.8001 22.35 7.4251 22.5 7.0501 22.5C6.6376 22.5 6.2626 22.35 6.0001 22.05L4.9501 21C4.3501 20.4 4.3501 19.425 4.9501 18.825L14.3251 9.26248C14.0251 8.81248 13.8001 8.28748 13.6501 7.76248C13.3126 6.29998 13.5001 4.31251 14.6626 3.15001L14.9626 2.8125C15.9376 1.8375 18.4876 1.53751 19.8751 1.46251L17.1376 4.61252C16.8751 4.91252 16.9126 5.32501 17.1376 5.58751L21.4876 10.05C21.7501 10.35 22.2001 10.35 22.4626 10.0875L25.5376 7.34999C25.4626 8.81249 25.1626 10.9875 24.2251 11.925Z" fill="white"/>
</svg>
