<svg width="30" height="24" viewBox="0 0 30 24" fill="none" xmlns="http://www.w3.org/2000/svg">
<g clip-path="url(#clip0_3018_12698)">
<path fill-rule="evenodd" clip-rule="evenodd" d="M29.2892 9.60926L28.5928 9.97684V17.2428C29.2745 17.5188 29.7564 18.1872 29.7564 18.9684C29.7564 19.9963 28.923 20.8297 27.8951 20.8297C26.8672 20.8297 26.0338 19.9963 26.0338 18.9684C26.0338 18.1905 26.511 17.5249 27.188 17.2468V10.7193L23.2282 12.8105C23.2576 12.9281 23.2716 13.0578 23.2716 13.1955V21.2721C23.2716 21.5522 23.146 21.8168 22.9301 21.9926C22.7229 22.1617 20.7374 23.6433 14.8448 23.6433C8.95218 23.6433 6.99801 22.0748 6.79618 21.8957C6.59835 21.7192 6.48407 21.466 6.48407 21.2006V13.3265C6.48407 13.1427 6.4941 12.9723 6.52952 12.8279L0.489228 9.61327C0.189151 9.45154 0.0020212 9.1401 1.62388e-05 8.80059C-0.00198873 8.46042 0.1818 8.14697 0.477866 7.9819L14.4037 0.480659C14.6857 0.32494 15.0245 0.324271 15.3046 0.477985L29.3066 7.96853C29.6073 8.13361 29.7924 8.45106 29.7891 8.79391C29.7858 9.13743 29.594 9.45087 29.2892 9.60926ZM7.7746 21.1472C8.45896 21.5014 10.915 22.3942 14.8374 22.3942C18.7598 22.3942 21.135 21.5461 21.8668 21.1946V13.529L15.2618 17.0169C15.1275 17.0878 14.9791 17.1232 14.8307 17.1232C14.6824 17.1232 14.526 17.0858 14.389 17.0116L7.7746 13.4915V21.1478V21.1472ZM14.8588 1.67294L1.84057 8.78322L14.8381 15.709L27.9145 8.65089L14.8588 1.67294Z" fill="white"/>
</g>
<defs>
<clipPath id="clip0_3018_12698">
<rect width="30" height="24" fill="white"/>
</clipPath>
</defs>
</svg>
