<svg width="25" height="25" viewBox="0 0 25 25" fill="none" xmlns="http://www.w3.org/2000/svg">
<path fill-rule="evenodd" clip-rule="evenodd" d="M4.70649 1.48104C4.73149 1.48104 4.75647 1.48104 4.78147 1.48104C5.19397 2.11854 7.444 5.53104 7.8565 6.16854C7.8565 6.24354 7.85649 6.43104 7.70649 6.65604C7.59399 6.91854 7.144 7.66855 6.544 8.75605L6.05648 9.58105L6.61898 10.3311C7.03148 10.9311 8.0065 12.206 9.919 14.1185C11.8315 16.031 13.1065 17.006 13.669 17.4185L14.4565 17.9436L15.2815 17.4935C16.069 17.006 17.044 16.481 17.3815 16.2935C17.6065 16.181 17.794 16.181 17.8315 16.181C17.8565 16.181 17.869 16.181 17.869 16.181C18.4315 16.5185 21.919 18.8435 22.5565 19.2935C22.5565 19.331 22.5565 19.4811 22.444 19.6311C21.5065 20.9436 20.1565 22.3311 19.594 22.5186C16.7815 22.4061 12.844 19.931 8.49398 15.5435C4.10648 11.1935 1.63149 7.21855 1.51899 4.44355C1.70649 3.88105 3.05648 2.53104 4.36898 1.59354C4.48148 1.51854 4.59399 1.48104 4.70649 1.48104ZM4.70649 0.0185547C4.29399 0.0185547 3.88151 0.168554 3.50651 0.393555C3.50651 0.431055 -0.0560099 2.94354 0.0189901 4.40604C0.13149 8.49354 4.10647 13.2935 7.40647 16.5935C10.744 19.931 15.544 23.9061 19.6315 24.0186H19.669C21.094 24.0186 23.644 20.531 23.644 20.4935C24.319 19.556 24.094 18.506 23.494 18.0935C23.119 17.831 19.1065 15.1685 18.5815 14.8685C18.3815 14.7435 18.1315 14.681 17.8315 14.681C17.4565 14.681 17.0815 14.756 16.669 14.981C16.294 15.1685 15.094 15.8435 14.5315 16.181C14.044 15.806 12.844 14.906 10.969 13.031C9.13147 11.1935 8.194 9.99354 7.8565 9.46854C8.194 8.90604 8.83148 7.74355 9.05648 7.36855C9.43148 6.61855 9.469 5.90604 9.169 5.41854C8.869 4.96854 6.20651 0.956055 5.94401 0.581055C5.68151 0.243555 5.19399 0.0185547 4.70649 0.0185547Z" fill="white" fill-opacity="0.8"/>
</svg>
